# xmcd CD database file
#
# Track frame offsets:
#	150
#	18450
#	35562
#	53115
#	74827
#	93265
#	111572
#	132490
#	146364
#	164356
#	192169
#	216606
#	229694
#	253271
#	278381
#	304704
#
# Disc length: 4446 seconds
#
# Revision: 0
# Processed by: cddbd v1.5.2PL0 Copyright (c) Steve Scherf et al.
# Submitted via: CDex 1.70beta2
#
DISCID=f3115c10
DTITLE=IAN SCOTT - 16 tracks LIVE
DYEAR=2007
DGENRE=Country
TTITLE0=Walk of life
TTITLE1=Oh Suzana
TTITLE2=Sur la route de Memphis
TTITLE3=Jambalaya
TTITLE4=Jolie Blonde
TTITLE5=Mary Lou
TTITLE6=La file aux cheveux clairs
TTITLE7=Cajun Celtic
TTITLE8=Coin coin coin
TTITLE9=How long blues
TTITLE10=Quelque chose de Tennessee
TTITLE11=Proud Mary
TTITLE12=Le bon temps du Rock 'n roll
TTITLE13=Wonderfull tonight
TTITLE14=Gabrielle
TTITLE15=Paint it black
EXTD=YEAR: 2007
EXTT0=
EXTT1=
EXTT2=
EXTT3=
EXTT4=
EXTT5=
EXTT6=
EXTT7=
EXTT8=
EXTT9=
EXTT10=
EXTT11=
EXTT12=
EXTT13=
EXTT14=
EXTT15=
PLAYORDER=
